<svg width="45" height="45" viewBox="0 0 45 45" fill="none" xmlns="http://www.w3.org/2000/svg">
<circle cx="22.5" cy="22.5" r="7.25" fill="#D1FAE5" stroke="black" stroke-width="0.5"/>
<path d="M23 0.25C24.271 0.25 25.4522 1.0227 26.3271 2.33496C27.201 3.64575 27.75 5.4714 27.75 7.5C27.75 9.5286 27.201 11.3542 26.3271 12.665C25.4522 13.9773 24.271 14.75 23 14.75C21.729 14.75 20.5478 13.9773 19.6729 12.665C18.799 11.3542 18.25 9.5286 18.25 7.5C18.25 5.4714 18.799 3.64575 19.6729 2.33496C20.5478 1.0227 21.729 0.25 23 0.25Z" fill="#FFFACD" stroke="black" stroke-width="0.5"/>
<path d="M30.25 22C30.25 20.729 31.0227 19.5478 32.335 18.6729C33.6458 17.799 35.4714 17.25 37.5 17.25C39.5286 17.25 41.3542 17.799 42.665 18.6729C43.9773 19.5478 44.75 20.729 44.75 22C44.75 23.271 43.9773 24.4522 42.665 25.3271C41.3542 26.201 39.5286 26.75 37.5 26.75C35.4714 26.75 33.6458 26.201 32.335 25.3271C31.0227 24.4522 30.25 23.271 30.25 22Z" fill="#FFFACD" stroke="black" stroke-width="0.5"/>
<path d="M39.7332 7.24141C38.9631 6.23037 37.6326 5.75897 36.0585 5.85811C34.4863 5.95725 32.7013 6.62681 31.0876 7.85607C29.4738 9.08532 28.3542 10.6283 27.841 12.1178C27.3273 13.609 27.4284 15.0168 28.1986 16.0279C28.9687 17.0389 30.2992 17.5103 31.8733 17.4112C33.4455 17.3121 35.2305 16.6425 36.8442 15.4132C38.458 14.184 39.5776 12.641 40.0908 11.1515C40.6045 9.66031 40.5034 8.25246 39.7332 7.24141Z" fill="#FFFACD" stroke="black" stroke-width="0.5"/>
<path d="M39.7635 36.9153C38.9933 37.9264 37.6629 38.3978 36.0888 38.2986C34.5165 38.1995 32.7316 37.5299 31.1178 36.3007C29.5041 35.0714 28.3845 33.5284 27.8713 32.039C27.3576 30.5477 27.4587 29.1399 28.2289 28.1288C28.999 27.1178 30.3295 26.6464 31.9036 26.7455C33.4758 26.8447 35.2608 27.5142 36.8745 28.7435C38.4882 29.9728 39.6079 31.5158 40.1211 33.0052C40.6347 34.4964 40.5337 35.9043 39.7635 36.9153Z" fill="#FFFACD" stroke="black" stroke-width="0.5"/>
<path d="M6.22869 7.12887C6.99885 6.11782 8.32929 5.64643 9.90339 5.74556C11.4756 5.8447 13.2606 6.51426 14.8743 7.74352C16.4881 8.97277 17.6077 10.5158 18.1209 12.0052C18.6346 13.4964 18.5335 14.9043 17.7633 15.9153C16.9932 16.9264 15.6627 17.3978 14.0886 17.2987C12.5164 17.1995 10.7314 16.5299 9.11768 15.3007C7.50395 14.0714 6.38433 12.5284 5.87113 11.039C5.35745 9.54776 5.45853 8.13991 6.22869 7.12887Z" fill="#FFFACD" stroke="black" stroke-width="0.5"/>
<path d="M5.22869 36.9153C5.99885 37.9264 7.32929 38.3978 8.90339 38.2986C10.4756 38.1995 12.2606 37.5299 13.8743 36.3007C15.4881 35.0714 16.6077 33.5284 17.1209 32.039C17.6346 30.5477 17.5335 29.1399 16.7633 28.1288C15.9932 27.1178 14.6627 26.6464 13.0886 26.7455C11.5164 26.8447 9.73141 27.5142 8.11768 28.7435C6.50395 29.9728 5.38433 31.5158 4.87113 33.0052C4.35745 34.4964 4.45853 35.9043 5.22869 36.9153Z" fill="#FFFACD" stroke="black" stroke-width="0.5"/>
<path d="M0.25 22C0.25 20.729 1.0227 19.5478 2.33496 18.6729C3.64575 17.799 5.4714 17.25 7.5 17.25C9.5286 17.25 11.3542 17.799 12.665 18.6729C13.9773 19.5478 14.75 20.729 14.75 22C14.75 23.271 13.9773 24.4522 12.665 25.3271C11.3542 26.201 9.5286 26.75 7.5 26.75C5.4714 26.75 3.64575 26.201 2.33496 25.3271C1.0227 24.4522 0.25 23.271 0.25 22Z" fill="#FFFACD" stroke="black" stroke-width="0.5"/>
<path d="M23 30.25C24.271 30.25 25.4522 31.0227 26.3271 32.335C27.201 33.6458 27.75 35.4714 27.75 37.5C27.75 39.5286 27.201 41.3542 26.3271 42.665C25.4522 43.9773 24.271 44.75 23 44.75C21.729 44.75 20.5478 43.9773 19.6729 42.665C18.799 41.3542 18.25 39.5286 18.25 37.5C18.25 35.4714 18.799 33.6458 19.6729 32.335C20.5478 31.0227 21.729 30.25 23 30.25Z" fill="#FFFACD" stroke="black" stroke-width="0.5"/>
</svg>
